<?xml version="1.0" standalone="no"?>
<!DOCTYPE svg PUBLIC "-//W3C//DTD SVG 20010904//EN"
 "http://www.w3.org/TR/2001/REC-SVG-20010904/DTD/svg10.dtd">
<svg version="1.0" xmlns="http://www.w3.org/2000/svg"
 width="1000.000000pt" height="1000.000000pt" viewBox="0 0 1000.000000 1000.000000"
 preserveAspectRatio="xMidYMid meet">
<metadata>
Created by potrace 1.14, written by Peter Selinger 2001-2017
</metadata>
<g transform="translate(0.000000,1000.000000) scale(0.100000,-0.100000)"
fill="#000000" stroke="none">
<path d="M0 5000 l0 -5000 5000 0 5000 0 0 5000 0 5000 -5000 0 -5000 0 0
-5000z m5720 3237 c495 -75 844 -215 1131 -456 256 -214 425 -501 501 -854 30
-140 33 -503 5 -641 -57 -282 -168 -489 -366 -687 -191 -192 -441 -328 -748
-409 -38 -9 -43 -14 -43 -39 0 -32 18 -41 82 -41 59 0 227 -36 326 -69 218
-73 397 -186 573 -361 293 -292 434 -620 455 -1062 26 -539 -174 -1032 -553
-1364 -294 -257 -701 -431 -1163 -498 -223 -32 -400 -36 -1862 -36 l-1468 0 0
3270 0 3271 1508 -4 c1368 -3 1518 -5 1622 -20z"/>
<path d="M3970 6340 l0 -810 583 0 c464 0 600 3 673 15 503 81 811 453 754
908 -42 337 -258 569 -612 656 -141 35 -270 41 -844 41 l-554 0 0 -810z"/>
<path d="M3970 3720 l0 -871 693 4 c735 5 757 6 952 57 44 12 125 43 181 70
279 135 429 405 411 738 -8 136 -35 243 -91 357 -122 247 -352 412 -681 488
-86 20 -124 21 -777 24 l-688 4 0 -871z"/>
</g>
</svg>
