<svg width="1800" height="1320" viewBox="0 0 1800 1320" fill="none" xmlns="http://www.w3.org/2000/svg">
<g clip-path="url(#clip0_1011_3656)">
<path d="M238.727 1266.13L265.261 1282.39L301.503 1298.28L347.536 1313.44L403.222 1327.57L468.069 1340.23L541.321 1351.23L621.756 1360.1L707.924 1366.66L798.16 1370.73L890.337 1372.11L982.607 1370.73L1072.84 1366.66L1159.01 1360.1L1239.45 1351.23L1312.67 1340.23L1377.48 1327.57L1433.23 1313.44L1479.27 1298.28L1515.51 1282.39L1542.05 1266.13" stroke="white" stroke-opacity="0.1" stroke-width="0.924545" stroke-dasharray="0.46 7.4"/>
<path d="M162.082 1175.21L179.01 1190.82L206.303 1206.44L244.404 1221.68L293.525 1236.28L353.592 1250.05L424.144 1262.43L504.339 1273.15L592.911 1281.93L688.139 1288.4L788.082 1292.37L890.337 1293.66L992.684 1292.37L1092.63 1288.4L1187.86 1281.93L1276.43 1273.15L1356.59 1262.43L1427.13 1250.05L1487.22 1236.28L1536.32 1221.68L1574.41 1206.44L1601.77 1190.82L1618.69 1175.21" stroke="white" stroke-opacity="0.1" stroke-width="0.924545" stroke-dasharray="0.46 7.4"/>
<path d="M110.649 1092.97L127.143 1107.02L154.843 1121.15L194.349 1135.01L245.975 1148.41L309.723 1160.98L385.175 1172.34L471.435 1182.23L567.116 1190.36L670.388 1196.37L779.022 1200.06L890.337 1201.26L1001.74 1200.06L1110.29 1196.37L1213.65 1190.36L1309.34 1182.23L1395.6 1172.34L1471.04 1160.98L1534.75 1148.41L1586.43 1135.01L1625.91 1121.15L1653.64 1107.02L1670.1 1092.97" stroke="white" stroke-opacity="0.3" stroke-width="0.924545" stroke-dasharray="0.46 7.4"/>
<path d="M68.2314 1004.27L84.1984 1016L112.073 1027.92L152.578 1039.56L206.146 1050.93L272.852 1061.65L352.307 1071.35L443.625 1079.85L545.297 1086.78L655.41 1091.95L771.348 1095.1L890.337 1096.21L1009.42 1095.1L1125.36 1091.95L1235.47 1086.78L1337.17 1079.85L1428.42 1071.35L1507.93 1061.65L1574.59 1050.93L1628.22 1039.56L1668.71 1027.92L1696.54 1016L1712.54 1004.27" stroke="white" stroke-opacity="0.3" stroke-width="0.924545" stroke-dasharray="0.46 7.4"/>
<path d="M35.6592 910.111L51.1083 919.074L79.0203 928.037L120.19 937L175.173 945.593L244.089 953.724L326.614 961.208L421.833 967.676L528.192 973.036L643.575 977.009L765.338 979.504L890.337 980.243L1015.43 979.504L1137.19 977.009L1252.57 973.036L1358.9 967.676L1454.12 961.208L1536.69 953.724L1605.56 945.593L1660.58 937L1701.72 928.037L1729.64 919.074L1745.08 910.111" stroke="white" stroke-opacity="0.3" stroke-width="0.924545" stroke-dasharray="0.46 7.4"/>
<path d="M13.5723 812.167L28.6239 817.711L56.4989 823.348L98.085 828.892L153.974 834.343L224.369 839.425L308.964 844.138L406.828 848.203L516.395 851.53L635.44 854.025L761.178 855.595L890.337 856.15L1019.59 855.595L1145.33 854.025L1264.32 851.53L1373.97 848.203L1471.78 844.138L1556.38 839.425L1626.74 834.343L1682.67 828.892L1724.28 823.348L1752.11 817.711L1767.18 812.167" stroke="white" stroke-opacity="0.3" stroke-width="0.924545" stroke-dasharray="0.46 7.4"/>
<path d="M2.40332 711.821L17.2423 713.761L45.0896 715.609L86.8605 717.55L143.202 719.398L214.346 721.153L299.977 722.724L399.181 724.11L510.376 725.219L631.279 726.143L759.051 726.605L890.337 726.79L1021.71 726.605L1149.49 726.143L1270.42 725.219L1381.55 724.11L1480.75 722.724L1566.36 721.153L1637.55 719.398L1693.86 717.55L1735.65 715.609L1763.48 713.761L1778.36 711.821" stroke="white" stroke-opacity="0.3" stroke-width="0.924545" stroke-dasharray="0.46 7.4"/>
<path d="M2.40332 610.708L17.2423 608.823L45.0896 606.919L86.8605 605.025L143.202 603.186L214.346 601.44L299.977 599.851L399.181 598.446L510.376 597.3L631.279 596.45L759.051 595.914L890.337 595.739L1021.71 595.914L1149.49 596.45L1270.42 597.3L1381.55 598.446L1480.75 599.851L1566.36 601.44L1637.55 603.186L1693.86 605.025L1735.65 606.919L1763.48 608.823L1778.36 610.708" stroke="white" stroke-opacity="0.75" stroke-width="0.924545" stroke-dasharray="0.46 7.4"/>
<path d="M13.5723 510.371L28.6239 504.827L56.4989 499.218L98.085 493.646L153.974 488.241L224.369 483.122L308.964 478.447L406.828 474.353L516.395 470.99L635.44 468.495L761.178 466.943L890.337 466.425L1019.59 466.943L1145.33 468.495L1264.32 470.99L1373.97 474.353L1471.78 478.447L1556.38 483.122L1626.74 488.241L1682.67 493.646L1724.28 499.218L1752.11 504.827L1767.18 510.371" stroke="white" stroke-opacity="0.75" stroke-width="0.924545" stroke-dasharray="0.46 7.4"/>
<path d="M35.6592 412.408L51.1083 403.501L79.0203 394.511L120.19 385.603L175.173 376.964L244.089 368.805L326.614 361.357L421.833 354.862L528.192 349.521L643.575 345.548L765.338 343.099L890.337 342.277L1015.43 343.099L1137.19 345.548L1252.57 349.521L1358.9 354.862L1454.12 361.357L1536.69 368.805L1605.56 376.964L1660.58 385.603L1701.72 394.511L1729.64 403.501L1745.08 412.408" stroke="white" stroke-opacity="0.75" stroke-width="0.924545" stroke-dasharray="0.46 7.4"/>
<path d="M68.2314 318.336L84.1984 306.546L112.073 294.681L152.578 282.956L206.146 271.609L272.852 260.928L352.307 251.198L443.625 242.725L545.297 235.776L655.41 230.62L771.348 227.442L890.337 226.361L1009.42 227.442L1125.36 230.62L1235.47 235.776L1337.17 242.725L1428.42 251.198L1507.93 260.928L1574.59 271.609L1628.22 282.956L1668.71 294.681L1696.54 306.546L1712.54 318.336" stroke="white" stroke-opacity="0.75" stroke-width="0.924545" stroke-dasharray="0.46 7.4"/>
<path d="M110.649 229.558L127.143 215.504L154.843 201.413L194.349 187.534L245.975 174.155L309.723 161.598L385.175 150.196L471.435 140.29L567.116 132.196L670.388 126.19L779.022 122.494L890.337 121.247L1001.74 122.494L1110.29 126.19L1213.65 132.196L1309.34 140.29L1395.6 150.196L1471.04 161.598L1534.75 174.155L1586.43 187.534L1625.91 201.413L1653.64 215.504L1670.1 229.558" stroke="white" stroke-opacity="0.75" stroke-width="0.924545" stroke-dasharray="0.46 7.4"/>
<path d="M162.082 147.331L179.01 131.734L206.303 116.165L244.404 100.9L293.525 86.2456L353.592 72.5427L424.144 60.1426L504.339 49.4057L592.911 40.6554L688.139 34.1782L788.082 30.1958L890.337 28.856L992.684 30.1958L1092.63 34.1782L1187.86 40.6554L1276.43 49.4057L1356.59 60.1426L1427.13 72.5427L1487.22 86.2456L1536.32 100.9L1574.41 116.165L1601.77 131.734L1618.69 147.331" stroke="white" stroke-opacity="0.75" stroke-width="0.924545" stroke-dasharray="0.46 7.4"/>
<path d="M238.727 56.382L265.261 40.1288L301.503 24.273L347.536 9.11936L403.222 -4.98089L468.069 -17.6859L541.321 -28.6538L621.756 -37.5704L707.924 -44.1493L798.16 -48.1871L890.337 -49.5454L982.607 -48.1871L1072.84 -44.1493L1159.01 -37.5704L1239.45 -28.6538L1312.67 -17.6859L1377.48 -4.98089L1433.23 9.11936L1479.27 24.273L1515.51 40.1288L1542.05 56.382" stroke="white" stroke-opacity="0.75" stroke-width="0.924545" stroke-dasharray="0.46 7.4"/>
<path d="M135.298 1135.01L88.2572 1049.36L50.6744 957.79L23.2709 861.602L6.60133 762.179L1.00781 661.278L6.60133 560.341L23.2709 460.992L50.6744 364.794L88.2572 273.208L135.298 187.553" stroke="url(#paint0_linear_1011_3656)" stroke-width="0.924545" stroke-dasharray="0.46 7.4"/>
<path d="M340.362 1361.49L271.15 1300.41L207.957 1229.63L152.032 1149.89L104.492 1062.39L66.3725 968.231L38.5067 868.809L21.5228 765.968L15.8184 661.278L21.5228 556.598L38.5067 453.72L66.3725 354.372L104.492 260.198L152.032 172.63L207.957 92.9445L271.15 22.1569L340.362 -38.938" stroke="url(#paint1_linear_1011_3656)" stroke-width="0.924545" stroke-dasharray="0.46 7.4"/>
<path d="M436.986 1427L364.963 1377.29L297.157 1316.67L234.926 1245.62L179.555 1164.86L132.302 1075.42L94.2751 978.672L66.4001 876.201L49.3792 769.756L43.6562 661.278L49.3792 552.819L66.4001 446.365L94.2751 343.875L132.302 247.123L179.555 157.698L234.926 76.9315L297.157 5.86665L364.963 -54.757L436.986 -104.45" stroke="url(#paint2_linear_1011_3656)" stroke-width="0.924545" stroke-dasharray="0.46 7.4"/>
<path d="M537.438 1477.91L466.248 1441.13L397.424 1392.62L332.281 1332.56L272.158 1261.32L218.414 1179.55L172.353 1088.35L135.149 989.113L107.811 883.5L91.0856 773.452L85.4551 661.278L91.0856 549.058L107.811 439.075L135.149 333.48L172.353 234.233L218.414 143.034L272.158 61.2696L332.281 -9.99851L397.424 -70.0585L466.248 -118.532L537.438 -155.334" stroke="url(#paint3_linear_1011_3656)" stroke-width="0.924545" stroke-dasharray="0.46 7.4"/>
<path d="M568.133 1489.46L501.991 1454.35L437.716 1407.13L376.548 1347.63L319.809 1276.29L268.857 1193.69L225.015 1100.73L189.485 999.093L163.302 890.523L147.261 777.148L141.853 661.279L147.261 545.4L163.302 431.997L189.485 323.418L225.015 221.787L268.857 128.916L319.809 46.2734L376.548 -25.1056L437.716 -84.565L501.991 -131.8L568.133 -166.866" stroke="url(#paint4_linear_1011_3656)" stroke-width="0.924545" stroke-dasharray="0.46 7.4"/>
<path d="M603.635 1499.99L543.909 1466.54L485.607 1420.53L429.783 1361.67L377.768 1290.25L330.857 1206.9L290.334 1112.47L257.393 1008.61L233.059 897.268L218.118 780.659L213.079 661.278L218.118 541.944L233.059 425.307L257.393 313.919L290.334 210.08L330.857 115.693L377.768 32.2746L429.783 -39.1413L485.607 -97.9632L543.909 -143.997L603.635 -177.409" stroke="url(#paint5_linear_1011_3656)" stroke-width="0.924545" stroke-dasharray="0.46 7.4"/>
<path d="M695.813 1528.73L643.761 1509.33L591.709 1477.45L540.582 1432.54L491.516 1374.33L445.566 1302.9L403.971 1218.82L367.904 1123.09L338.513 1017.3L316.74 903.366L303.362 783.801L298.841 661.278L303.362 538.784L316.74 419.19L338.513 305.261L367.904 199.435L403.971 103.709L445.566 19.6434L491.516 -51.754L540.582 -109.957L591.709 -154.854L643.761 -186.75L695.813 -206.191" stroke="url(#paint6_linear_1011_3656)" stroke-width="0.924545" stroke-dasharray="0.46 7.4"/>
<path d="M730.945 1535.2L687.861 1517.27L644.685 1486.69L602.063 1442.8L560.921 1385.14L522.377 1313.81L487.309 1229.26L456.836 1132.43L431.919 1024.87L413.438 908.726L402.066 786.573L398.22 661.278L402.066 536.012L413.438 413.85L431.919 297.712L456.836 190.168L487.309 93.3142L522.377 8.71274L560.921 -62.6293L602.063 -120.241L644.685 -164.14L687.861 -194.691L730.945 -212.591" stroke="url(#paint7_linear_1011_3656)" stroke-width="0.924545" stroke-dasharray="0.46 7.4"/>
<path d="M768.574 1540.28L735.383 1523.65L702.007 1494.17L669 1451.11L637.104 1394.01L606.964 1322.77L579.597 1237.76L555.651 1140L536.143 1031.06L521.6 913.068L512.641 788.79L509.618 661.278L512.641 533.738L521.6 409.461L536.143 291.521L555.651 182.582L579.597 84.8224L606.964 -0.176336L637.104 -71.4445L669 -128.566L702.007 -171.615L735.383 -201.071L768.574 -217.71" stroke="url(#paint8_linear_1011_3656)" stroke-width="0.924545" stroke-dasharray="0.46 7.4"/>
<path d="M808.052 1543.98L785.586 1528.27L762.842 1499.62L740.283 1457.21L718.464 1400.48L697.754 1329.33L678.986 1244.05L662.529 1145.64L649.031 1035.68L639.046 916.395L632.851 790.546L630.725 661.278L632.851 532.038L639.046 406.199L649.031 286.91L662.529 176.954L678.986 78.5392L697.754 -6.75524L718.464 -77.9494L740.283 -134.683L762.842 -177.095L785.586 -205.736L808.052 -221.444" stroke="url(#paint9_linear_1011_3656)" stroke-width="0.924545" stroke-dasharray="0.46 7.4"/>
<path d="M848.917 1546.29L837.452 1531.13L825.988 1503.04L814.524 1461L803.429 1404.45L792.982 1333.4L783.366 1247.93L775.046 1149.06L768.111 1038.46L763.026 918.335L759.883 791.562L758.773 661.278L759.883 530.994L763.026 404.185L768.111 284.074L775.046 173.49L783.366 74.6678L792.982 -10.793L803.429 -81.9317L814.524 -138.425L825.988 -180.449L837.452 -208.581L848.917 -223.716" stroke="url(#paint10_linear_1011_3656)" stroke-width="0.924545" stroke-dasharray="0.46 7.4"/>
<path d="M890.337 1547.02V1532.06V1504.15V1462.2V1405.84V1334.69V1249.22V1150.26V1039.47V919.074V791.932V661.278V530.643V403.501V283.113V172.316V73.365V-12.1512V-83.2807V-139.691V-181.576V-209.537V-224.479" stroke="url(#paint11_linear_1011_3656)" stroke-width="0.924545" stroke-dasharray="0.46 7.4"/>
<path d="M931.849 1546.29L943.22 1531.13L954.777 1503.04L966.242 1461L977.336 1404.45L987.784 1333.4L997.399 1247.93L1005.72 1149.06L1012.65 1038.46L1017.74 918.335L1020.88 791.562L1021.99 661.278L1020.88 530.994L1017.74 404.185L1012.65 284.074L1005.72 173.49L997.399 74.6678L987.784 -10.793L977.336 -81.9317L966.242 -138.425L954.777 -180.449L943.22 -208.581L931.849 -223.716" stroke="url(#paint12_linear_1011_3656)" stroke-width="0.924545" stroke-dasharray="0.46 7.4"/>
<path d="M972.714 1543.98L995.18 1528.27L1017.92 1499.62L1040.48 1457.21L1062.3 1400.48L1082.92 1329.33L1101.78 1244.05L1118.24 1145.64L1131.64 1035.68L1141.72 916.395L1147.92 790.546L1149.95 661.278L1147.92 532.038L1141.72 406.199L1131.64 286.91L1118.24 176.954L1101.78 78.5392L1082.92 -6.75524L1062.3 -77.9494L1040.48 -134.683L1017.92 -177.095L995.18 -205.736L972.714 -221.444" stroke="url(#paint13_linear_1011_3656)" stroke-width="0.924545" stroke-dasharray="0.46 7.4"/>
<path d="M1012.19 1540.28L1045.38 1523.65L1078.76 1494.17L1111.76 1451.11L1143.66 1394.01L1173.8 1322.77L1201.17 1237.76L1225.02 1140L1244.62 1031.06L1259.14 913.068L1268.11 788.79L1271.16 661.278L1268.11 533.738L1259.14 409.461L1244.62 291.521L1225.02 182.582L1201.17 84.8224L1173.8 -0.176336L1143.66 -71.4445L1111.76 -128.566L1078.76 -171.615L1045.38 -201.071L1012.19 -217.71" stroke="url(#paint14_linear_1011_3656)" stroke-width="0.924545" stroke-dasharray="0.46 7.4"/>
<path d="M1049.82 1535.2L1092.9 1517.27L1136.08 1486.69L1178.7 1442.8L1219.75 1385.14L1258.4 1313.81L1293.44 1229.26L1323.95 1132.43L1348.82 1024.87L1367.31 908.726L1378.68 786.573L1382.56 661.278L1378.68 536.012L1367.31 413.85L1348.82 297.712L1323.95 190.168L1293.44 93.3142L1258.4 8.71274L1219.75 -62.6293L1178.7 -120.241L1136.08 -164.14L1092.9 -194.691L1049.82 -212.591" stroke="url(#paint15_linear_1011_3656)" stroke-width="0.924545" stroke-dasharray="0.46 7.4"/>
<path d="M1084.86 1528.73L1137.01 1509.33L1189.06 1477.45L1240.09 1432.54L1289.28 1374.33L1335.14 1302.9L1376.74 1218.82L1412.8 1123.09L1442.2 1017.3L1464.02 903.366L1477.42 783.801L1481.95 661.278L1477.42 538.784L1464.02 419.19L1442.2 305.261L1412.8 199.435L1376.74 103.709L1335.14 19.6434L1289.28 -51.754L1240.09 -109.957L1189.06 -154.854L1137.01 -186.75L1084.86 -206.191" stroke="url(#paint16_linear_1011_3656)" stroke-width="0.924545" stroke-dasharray="0.46 7.4"/>
<path d="M1177.04 1499.99L1236.76 1466.54L1295.2 1420.53L1350.95 1361.67L1403 1290.25L1449.87 1206.9L1490.46 1112.47L1523.37 1008.61L1547.69 897.268L1562.67 780.659L1567.66 661.278L1562.67 541.944L1547.69 425.307L1523.37 313.919L1490.46 210.08L1449.87 115.693L1403 32.2746L1350.95 -39.1413L1295.2 -97.9632L1236.76 -143.997L1177.04 -177.409" stroke="url(#paint17_linear_1011_3656)" stroke-width="0.924545" stroke-dasharray="0.46 7.4"/>
<path d="M1212.63 1489.46L1278.74 1454.35L1342.99 1407.13L1404.2 1347.63L1460.97 1276.29L1511.91 1193.69L1555.73 1100.73L1591.23 999.093L1617.49 890.523L1633.49 777.148L1638.94 661.279L1633.49 545.4L1617.49 431.997L1591.23 323.418L1555.73 221.787L1511.91 128.916L1460.97 46.2734L1404.2 -25.1056L1342.99 -84.565L1278.74 -131.8L1212.63 -166.866" stroke="url(#paint18_linear_1011_3656)" stroke-width="0.924545" stroke-dasharray="0.46 7.4"/>
<path d="M1243.33 1477.91L1314.52 1441.13L1383.3 1392.62L1448.48 1332.56L1508.58 1261.32L1562.3 1179.55L1608.43 1088.35L1645.6 989.113L1672.96 883.5L1689.7 773.452L1695.34 661.278L1689.7 549.058L1672.96 439.075L1645.6 333.48L1608.43 234.233L1562.3 143.034L1508.58 61.2696L1448.48 -9.99851L1383.3 -70.0585L1314.52 -118.532L1243.33 -155.334" stroke="url(#paint19_linear_1011_3656)" stroke-width="0.924545" stroke-dasharray="0.46 7.4"/>
<path d="M1343.73 1427L1415.76 1377.29L1483.62 1316.67L1545.84 1245.62L1601.22 1164.86L1648.46 1075.42L1686.46 978.672L1714.38 876.201L1731.4 769.756L1737.13 661.278L1731.4 552.819L1714.38 446.365L1686.46 343.875L1648.46 247.123L1601.22 157.698L1545.84 76.9315L1483.62 5.86665L1415.76 -54.757L1343.73 -104.45" stroke="url(#paint20_linear_1011_3656)" stroke-width="0.924545" stroke-dasharray="0.46 7.4"/>
<path d="M1440.35 1361.49L1509.6 1300.41L1572.74 1229.63L1628.68 1149.89L1676.29 1062.39L1714.38 968.231L1742.21 868.809L1759.22 765.968L1764.96 661.278L1759.22 556.598L1742.21 453.72L1714.38 354.372L1676.29 260.198L1628.68 172.63L1572.74 92.9445L1509.6 22.1569L1440.35 -38.938" stroke="url(#paint21_linear_1011_3656)" stroke-width="0.924545" stroke-dasharray="0.46 7.4"/>
<path d="M1645.41 1135.01L1692.47 1049.36L1730.1 957.79L1757.47 861.602L1774.11 762.179L1779.75 661.278L1774.11 560.341L1757.47 460.992L1730.1 364.794L1692.47 273.208L1645.41 187.553" stroke="url(#paint22_linear_1011_3656)" stroke-width="0.924545" stroke-dasharray="0.46 7.4"/>
</g>
<defs>
<linearGradient id="paint0_linear_1011_3656" x1="68.1529" y1="187.553" x2="68.1529" y2="1135.01" gradientUnits="userSpaceOnUse">
<stop stop-color="white"/>
<stop offset="1" stop-color="white" stop-opacity="0"/>
</linearGradient>
<linearGradient id="paint1_linear_1011_3656" x1="178.09" y1="-38.938" x2="178.09" y2="1361.49" gradientUnits="userSpaceOnUse">
<stop stop-color="white"/>
<stop offset="1" stop-color="white" stop-opacity="0"/>
</linearGradient>
<linearGradient id="paint2_linear_1011_3656" x1="240.321" y1="-104.45" x2="240.321" y2="1427" gradientUnits="userSpaceOnUse">
<stop stop-color="white"/>
<stop offset="1" stop-color="white" stop-opacity="0"/>
</linearGradient>
<linearGradient id="paint3_linear_1011_3656" x1="311.446" y1="-155.334" x2="311.446" y2="1477.91" gradientUnits="userSpaceOnUse">
<stop stop-color="white"/>
<stop offset="1" stop-color="white" stop-opacity="0"/>
</linearGradient>
<linearGradient id="paint4_linear_1011_3656" x1="354.993" y1="-166.866" x2="354.993" y2="1489.46" gradientUnits="userSpaceOnUse">
<stop stop-color="white"/>
<stop offset="1" stop-color="white" stop-opacity="0"/>
</linearGradient>
<linearGradient id="paint5_linear_1011_3656" x1="408.357" y1="-177.409" x2="408.357" y2="1499.99" gradientUnits="userSpaceOnUse">
<stop stop-color="white"/>
<stop offset="1" stop-color="white" stop-opacity="0"/>
</linearGradient>
<linearGradient id="paint6_linear_1011_3656" x1="497.327" y1="-206.191" x2="497.327" y2="1528.73" gradientUnits="userSpaceOnUse">
<stop stop-color="white"/>
<stop offset="1" stop-color="white" stop-opacity="0"/>
</linearGradient>
<linearGradient id="paint7_linear_1011_3656" x1="564.582" y1="-212.591" x2="564.582" y2="1535.2" gradientUnits="userSpaceOnUse">
<stop stop-color="white"/>
<stop offset="1" stop-color="white" stop-opacity="0"/>
</linearGradient>
<linearGradient id="paint8_linear_1011_3656" x1="639.096" y1="-217.71" x2="639.096" y2="1540.28" gradientUnits="userSpaceOnUse">
<stop stop-color="white"/>
<stop offset="1" stop-color="white" stop-opacity="0"/>
</linearGradient>
<linearGradient id="paint9_linear_1011_3656" x1="719.389" y1="-221.444" x2="719.389" y2="1543.98" gradientUnits="userSpaceOnUse">
<stop stop-color="white"/>
<stop offset="1" stop-color="white" stop-opacity="0"/>
</linearGradient>
<linearGradient id="paint10_linear_1011_3656" x1="803.845" y1="-223.716" x2="803.845" y2="1546.29" gradientUnits="userSpaceOnUse">
<stop stop-color="white"/>
<stop offset="1" stop-color="white" stop-opacity="0"/>
</linearGradient>
<linearGradient id="paint11_linear_1011_3656" x1="890.837" y1="-224.479" x2="890.837" y2="1547.02" gradientUnits="userSpaceOnUse">
<stop stop-color="white"/>
<stop offset="1" stop-color="white" stop-opacity="0"/>
</linearGradient>
<linearGradient id="paint12_linear_1011_3656" x1="976.92" y1="-223.716" x2="976.92" y2="1546.29" gradientUnits="userSpaceOnUse">
<stop stop-color="white"/>
<stop offset="1" stop-color="white" stop-opacity="0"/>
</linearGradient>
<linearGradient id="paint13_linear_1011_3656" x1="1061.33" y1="-221.444" x2="1061.33" y2="1543.98" gradientUnits="userSpaceOnUse">
<stop stop-color="white"/>
<stop offset="1" stop-color="white" stop-opacity="0"/>
</linearGradient>
<linearGradient id="paint14_linear_1011_3656" x1="1141.67" y1="-217.71" x2="1141.67" y2="1540.28" gradientUnits="userSpaceOnUse">
<stop stop-color="white"/>
<stop offset="1" stop-color="white" stop-opacity="0"/>
</linearGradient>
<linearGradient id="paint15_linear_1011_3656" x1="1216.19" y1="-212.591" x2="1216.19" y2="1535.2" gradientUnits="userSpaceOnUse">
<stop stop-color="white"/>
<stop offset="1" stop-color="white" stop-opacity="0"/>
</linearGradient>
<linearGradient id="paint16_linear_1011_3656" x1="1283.41" y1="-206.191" x2="1283.41" y2="1528.73" gradientUnits="userSpaceOnUse">
<stop stop-color="white"/>
<stop offset="1" stop-color="white" stop-opacity="0"/>
</linearGradient>
<linearGradient id="paint17_linear_1011_3656" x1="1372.35" y1="-177.409" x2="1372.35" y2="1499.99" gradientUnits="userSpaceOnUse">
<stop stop-color="white"/>
<stop offset="1" stop-color="white" stop-opacity="0"/>
</linearGradient>
<linearGradient id="paint18_linear_1011_3656" x1="1425.79" y1="-166.866" x2="1425.79" y2="1489.46" gradientUnits="userSpaceOnUse">
<stop stop-color="white"/>
<stop offset="1" stop-color="white" stop-opacity="0"/>
</linearGradient>
<linearGradient id="paint19_linear_1011_3656" x1="1469.33" y1="-155.334" x2="1469.33" y2="1477.91" gradientUnits="userSpaceOnUse">
<stop stop-color="white"/>
<stop offset="1" stop-color="white" stop-opacity="0"/>
</linearGradient>
<linearGradient id="paint20_linear_1011_3656" x1="1540.43" y1="-104.45" x2="1540.43" y2="1427" gradientUnits="userSpaceOnUse">
<stop stop-color="white"/>
<stop offset="1" stop-color="white" stop-opacity="0"/>
</linearGradient>
<linearGradient id="paint21_linear_1011_3656" x1="1602.65" y1="-38.938" x2="1602.65" y2="1361.49" gradientUnits="userSpaceOnUse">
<stop stop-color="white"/>
<stop offset="1" stop-color="white" stop-opacity="0"/>
</linearGradient>
<linearGradient id="paint22_linear_1011_3656" x1="1712.58" y1="187.553" x2="1712.58" y2="1135.01" gradientUnits="userSpaceOnUse">
<stop stop-color="white"/>
<stop offset="1" stop-color="white" stop-opacity="0"/>
</linearGradient>
<clipPath id="clip0_1011_3656">
<rect width="1800" height="1320" fill="white" transform="translate(0.540039 0.610352)"/>
</clipPath>
</defs>
</svg>
