<svg width="1800" height="1508" viewBox="0 0 1800 1508" fill="none" xmlns="http://www.w3.org/2000/svg">
<g clip-path="url(#clip0_135_4218)">
<mask id="mask0_135_4218" style="mask-type:alpha" maskUnits="userSpaceOnUse" x="0" y="0" width="1800" height="1653">
<path d="M1800 0H0V1652.66H1800V0Z" fill="url(#paint0_radial_135_4218)"/>
</mask>
<g mask="url(#mask0_135_4218)">
<path d="M178.035 1.22778H-28.2402V207.503H178.035V1.22778Z" stroke="#3F3F45" stroke-width="2.45566"/>
<path d="M384.311 1.22778H178.035V207.503H384.311V1.22778Z" fill="#3F3F45" stroke="#3F3F45" stroke-width="2.45566"/>
<path d="M590.587 1.22778H384.311V207.503H590.587V1.22778Z" stroke="#3F3F45" stroke-width="2.45566"/>
<path d="M796.862 1.22778H590.586V207.503H796.862V1.22778Z" stroke="#3F3F45" stroke-width="2.45566"/>
<path d="M1003.14 1.22778H796.862V207.503H1003.14V1.22778Z" stroke="#3F3F45" stroke-width="2.45566"/>
<path d="M1209.41 1.22778H1003.14V207.503H1209.41V1.22778Z" fill="#3F3F45" stroke="#3F3F45" stroke-width="2.45566"/>
<path d="M1415.69 1.22778H1209.41V207.503H1415.69V1.22778Z" stroke="#3F3F45" stroke-width="2.45566"/>
<path d="M1621.96 1.22778H1415.69V207.503H1621.96V1.22778Z" stroke="#3F3F45" stroke-width="2.45566"/>
<path d="M1828.24 1.22778H1621.96V207.503H1828.24V1.22778Z" stroke="#3F3F45" stroke-width="2.45566"/>
<path d="M178.035 207.503H-28.2402V413.779H178.035V207.503Z" fill="#3F3F45" stroke="#3F3F45" stroke-width="2.45566"/>
<path d="M384.311 207.503H178.035V413.779H384.311V207.503Z" stroke="#3F3F45" stroke-width="2.45566"/>
<path d="M590.587 207.503H384.311V413.779H590.587V207.503Z" stroke="#3F3F45" stroke-width="2.45566"/>
<path d="M796.862 207.503H590.586V413.779H796.862V207.503Z" stroke="#3F3F45" stroke-width="2.45566"/>
<path d="M1003.14 207.503H796.862V413.779H1003.14V207.503Z" stroke="#3F3F45" stroke-width="2.45566"/>
<path d="M1209.41 207.503H1003.14V413.779H1209.41V207.503Z" stroke="#3F3F45" stroke-width="2.45566"/>
<path d="M1415.69 207.503H1209.41V413.779H1415.69V207.503Z" stroke="#3F3F45" stroke-width="2.45566"/>
<path d="M1621.96 207.503H1415.69V413.779H1621.96V207.503Z" stroke="#3F3F45" stroke-width="2.45566"/>
<path d="M1828.24 207.503H1621.96V413.779H1828.24V207.503Z" stroke="#3F3F45" stroke-width="2.45566"/>
<path d="M178.035 413.779H-28.2402V620.054H178.035V413.779Z" stroke="#3F3F45" stroke-width="2.45566"/>
<path d="M384.311 413.779H178.035V620.054H384.311V413.779Z" stroke="#3F3F45" stroke-width="2.45566"/>
<path d="M590.587 413.779H384.311V620.054H590.587V413.779Z" stroke="#3F3F45" stroke-width="2.45566"/>
<path d="M796.862 413.779H590.586V620.054H796.862V413.779Z" stroke="#3F3F45" stroke-width="2.45566"/>
<path d="M1003.14 413.779H796.862V620.054H1003.14V413.779Z" stroke="#3F3F45" stroke-width="2.45566"/>
<path d="M1209.41 413.779H1003.14V620.054H1209.41V413.779Z" stroke="#3F3F45" stroke-width="2.45566"/>
<path d="M1415.69 413.779H1209.41V620.054H1415.69V413.779Z" stroke="#3F3F45" stroke-width="2.45566"/>
<path d="M1621.96 413.779H1415.69V620.054H1621.96V413.779Z" stroke="#3F3F45" stroke-width="2.45566"/>
<path d="M1828.24 413.779H1621.96V620.054H1828.24V413.779Z" fill="#3F3F45" stroke="#3F3F45" stroke-width="2.45566"/>
<path d="M178.035 620.054H-28.2402V826.33H178.035V620.054Z" stroke="#3F3F45" stroke-width="2.45566"/>
<path d="M384.311 620.054H178.035V826.33H384.311V620.054Z" stroke="#3F3F45" stroke-width="2.45566"/>
<path d="M590.587 620.054H384.311V826.33H590.587V620.054Z" stroke="#3F3F45" stroke-width="2.45566"/>
<path d="M796.862 620.054H590.586V826.33H796.862V620.054Z" stroke="#3F3F45" stroke-width="2.45566"/>
<path d="M1003.14 620.054H796.862V826.33H1003.14V620.054Z" stroke="#3F3F45" stroke-width="2.45566"/>
<path d="M1209.41 620.054H1003.14V826.33H1209.41V620.054Z" stroke="#3F3F45" stroke-width="2.45566"/>
<path d="M1415.69 620.054H1209.41V826.33H1415.69V620.054Z" stroke="#3F3F45" stroke-width="2.45566"/>
<path d="M1621.96 620.054H1415.69V826.33H1621.96V620.054Z" stroke="#3F3F45" stroke-width="2.45566"/>
<path d="M1828.24 620.054H1621.96V826.33H1828.24V620.054Z" stroke="#3F3F45" stroke-width="2.45566"/>
<path d="M178.035 826.33H-28.2402V1032.61H178.035V826.33Z" stroke="#3F3F45" stroke-width="2.45566"/>
<path d="M384.311 826.33H178.035V1032.61H384.311V826.33Z" stroke="#3F3F45" stroke-width="2.45566"/>
<path d="M590.587 826.33H384.311V1032.61H590.587V826.33Z" fill="#3F3F45" stroke="#3F3F45" stroke-width="2.45566"/>
<path d="M796.862 826.33H590.586V1032.61H796.862V826.33Z" stroke="#3F3F45" stroke-width="2.45566"/>
<path d="M1003.14 826.33H796.862V1032.61H1003.14V826.33Z" stroke="#3F3F45" stroke-width="2.45566"/>
<path d="M1209.41 826.33H1003.14V1032.61H1209.41V826.33Z" stroke="#3F3F45" stroke-width="2.45566"/>
<path d="M1415.69 826.33H1209.41V1032.61H1415.69V826.33Z" stroke="#3F3F45" stroke-width="2.45566"/>
<path d="M1621.96 826.33H1415.69V1032.61H1621.96V826.33Z" fill="#3F3F45" stroke="#3F3F45" stroke-width="2.45566"/>
<path d="M1828.24 826.33H1621.96V1032.61H1828.24V826.33Z" stroke="#3F3F45" stroke-width="2.45566"/>
<path d="M178.035 1032.61H-28.2402V1238.88H178.035V1032.61Z" stroke="#3F3F45" stroke-width="2.45566"/>
<path d="M384.311 1032.61H178.035V1238.88H384.311V1032.61Z" stroke="#3F3F45" stroke-width="2.45566"/>
<path d="M590.587 1032.61H384.311V1238.88H590.587V1032.61Z" stroke="#3F3F45" stroke-width="2.45566"/>
<path d="M796.862 1032.61H590.586V1238.88H796.862V1032.61Z" stroke="#3F3F45" stroke-width="2.45566"/>
<path d="M1003.14 1032.61H796.862V1238.88H1003.14V1032.61Z" stroke="#3F3F45" stroke-width="2.45566"/>
<path d="M1209.41 1032.61H1003.14V1238.88H1209.41V1032.61Z" stroke="#3F3F45" stroke-width="2.45566"/>
<path d="M1415.69 1032.61H1209.41V1238.88H1415.69V1032.61Z" stroke="#3F3F45" stroke-width="2.45566"/>
<path d="M1621.96 1032.61H1415.69V1238.88H1621.96V1032.61Z" stroke="#3F3F45" stroke-width="2.45566"/>
<path d="M1828.24 1032.61H1621.96V1238.88H1828.24V1032.61Z" stroke="#3F3F45" stroke-width="2.45566"/>
<path d="M178.035 1238.88H-28.2402V1445.16H178.035V1238.88Z" stroke="#3F3F45" stroke-width="2.45566"/>
<path d="M384.311 1238.88H178.035V1445.16H384.311V1238.88Z" stroke="#3F3F45" stroke-width="2.45566"/>
<path d="M590.587 1238.88H384.311V1445.16H590.587V1238.88Z" stroke="#3F3F45" stroke-width="2.45566"/>
<path d="M796.862 1238.88H590.586V1445.16H796.862V1238.88Z" stroke="#3F3F45" stroke-width="2.45566"/>
<path d="M1003.14 1238.88H796.862V1445.16H1003.14V1238.88Z" stroke="#3F3F45" stroke-width="2.45566"/>
<path d="M1209.41 1238.88H1003.14V1445.16H1209.41V1238.88Z" stroke="#3F3F45" stroke-width="2.45566"/>
<path d="M1415.69 1238.88H1209.41V1445.16H1415.69V1238.88Z" stroke="#3F3F45" stroke-width="2.45566"/>
<path d="M1621.96 1238.88H1415.69V1445.16H1621.96V1238.88Z" stroke="#3F3F45" stroke-width="2.45566"/>
<path d="M1828.24 1238.88H1621.96V1445.16H1828.24V1238.88Z" stroke="#3F3F45" stroke-width="2.45566"/>
<path d="M178.035 1445.16H-28.2402V1651.43H178.035V1445.16Z" stroke="#3F3F45" stroke-width="2.45566"/>
<path d="M384.311 1445.16H178.035V1651.43H384.311V1445.16Z" stroke="#3F3F45" stroke-width="2.45566"/>
<path d="M590.587 1445.16H384.311V1651.43H590.587V1445.16Z" stroke="#3F3F45" stroke-width="2.45566"/>
<path d="M796.862 1445.16H590.586V1651.43H796.862V1445.16Z" stroke="#3F3F45" stroke-width="2.45566"/>
<path d="M1003.14 1445.16H796.862V1651.43H1003.14V1445.16Z" stroke="#3F3F45" stroke-width="2.45566"/>
<path d="M1209.41 1445.16H1003.14V1651.43H1209.41V1445.16Z" stroke="#3F3F45" stroke-width="2.45566"/>
<path d="M1415.69 1445.16H1209.41V1651.43H1415.69V1445.16Z" stroke="#3F3F45" stroke-width="2.45566"/>
<path d="M1621.96 1445.16H1415.69V1651.43H1621.96V1445.16Z" stroke="#3F3F45" stroke-width="2.45566"/>
<path d="M1828.24 1445.16H1621.96V1651.43H1828.24V1445.16Z" stroke="#3F3F45" stroke-width="2.45566"/>
</g>
</g>
<defs>
<radialGradient id="paint0_radial_135_4218" cx="0" cy="0" r="1" gradientUnits="userSpaceOnUse" gradientTransform="translate(900 826.33) rotate(89.7392) scale(769.066 837.631)">
<stop/>
<stop offset="1" stop-opacity="0"/>
</radialGradient>
<clipPath id="clip0_135_4218">
<rect width="1800" height="1507.78" fill="white"/>
</clipPath>
</defs>
</svg>
